<?xml version="1.0" encoding="utf-8"?>
<!-- Designed by Vexels.com - 2016 All Rights Reserved - https://vexels.com/terms-and-conditions/  -->

<svg version="1.0" id="Capa_1" xmlns="http://www.w3.org/2000/svg" xmlns:xlink="http://www.w3.org/1999/xlink" x="0px" y="0px"
	 width="1200px" height="50px" viewBox="0 0 1200 1200" enable-background="new 0 0 1200 1200" xml:space="preserve">
<g>
	<g>
		<rect x="35.028" y="598.962" fill="#fff" width="1129.944" height="2.07"/>
	</g>
	<g>
		<g>
			<g>
				<g>
					<g>
						<path fill="#fff" d="M71.168,601.115c13.392-5.995,26.699-12.171,39.894-18.587c6.597-3.207,13.167-6.472,19.71-9.788
							c2.827-1.433,5.857-3.637,8.906-4.555c2.049-2.164,4.225-2.421,6.527-0.771c1.944,0.252,3.498,1.139,4.662,2.66
							c12.547,9.357,22.408,22.422,35.608,31.04c1.398,0.913,2.697-1.327,1.306-2.234c-7.263-4.741-13.708-11.288-20.162-17.037
							c-4.414-3.932-8.802-7.897-13.129-11.925c-1.968-1.832-5.378-6.406-8.339-6.826c-2.702-0.383-5.639,1.769-7.778,2.858
							c-7.132,3.63-14.253,7.279-21.43,10.821c-15.549,7.677-31.254,15.023-47.081,22.108
							C68.345,599.559,69.659,601.79,71.168,601.115L71.168,601.115z"/>
					</g>
				</g>
				<g>
					<g>
						<path fill="#fff" d="M100.321,601.115c6.692-3.008,13.348-6.088,19.946-9.296c6.659-3.238,13.868-8.901,20.797-4.765
							c5.97,3.564,10.469,10.039,16.257,14.06c1.371,0.952,2.666-1.29,1.306-2.234c-4.241-2.946-8.035-6.681-11.867-10.133
							c-2.275-2.049-5.842-7.045-9.103-7.826c-3.787-0.907-10.247,4.494-13.31,6.017c-8.36,4.159-16.816,8.114-25.332,11.942
							C97.499,599.562,98.813,601.793,100.321,601.115L100.321,601.115z"/>
					</g>
				</g>
			</g>
			<g>
				<g>
					<g>
						<path fill="#fff" d="M187.781,601.115c13.392-5.995,26.699-12.171,39.895-18.587c6.597-3.207,13.167-6.472,19.71-9.788
							c2.827-1.433,5.857-3.637,8.906-4.555c2.049-2.164,4.225-2.421,6.527-0.771c1.944,0.252,3.497,1.139,4.661,2.66
							c12.547,9.357,22.407,22.422,35.608,31.04c1.398,0.913,2.696-1.327,1.306-2.234c-7.263-4.741-13.708-11.288-20.162-17.037
							c-4.415-3.932-8.802-7.897-13.129-11.925c-1.968-1.832-5.378-6.406-8.339-6.826c-2.702-0.383-5.639,1.769-7.778,2.858
							c-7.132,3.63-14.253,7.279-21.43,10.821c-15.549,7.677-31.254,15.023-47.081,22.108
							C184.958,599.559,186.273,601.79,187.781,601.115L187.781,601.115z"/>
					</g>
				</g>
				<g>
					<g>
						<path fill="#fff" d="M216.935,601.115c6.691-3.008,13.348-6.088,19.946-9.296c6.658-3.238,13.868-8.901,20.797-4.765
							c5.97,3.564,10.469,10.039,16.257,14.06c1.37,0.952,2.666-1.29,1.306-2.234c-4.241-2.946-8.034-6.681-11.866-10.133
							c-2.275-2.049-5.842-7.045-9.103-7.826c-3.787-0.907-10.247,4.494-13.31,6.017c-8.361,4.159-16.816,8.114-25.333,11.942
							C214.112,599.562,215.427,601.793,216.935,601.115L216.935,601.115z"/>
					</g>
				</g>
			</g>
			<g>
				<g>
					<g>
						<path fill="#fff" d="M304.395,601.115c13.391-5.995,26.699-12.171,39.894-18.587c6.597-3.207,13.167-6.472,19.71-9.788
							c2.827-1.433,5.857-3.637,8.906-4.555c2.049-2.164,4.225-2.421,6.527-0.771c1.944,0.252,3.498,1.139,4.662,2.66
							c12.547,9.357,22.407,22.422,35.608,31.04c1.399,0.913,2.697-1.327,1.306-2.234c-7.263-4.741-13.708-11.288-20.162-17.037
							c-4.415-3.932-8.802-7.897-13.129-11.925c-1.969-1.832-5.378-6.406-8.339-6.826c-2.703-0.383-5.639,1.769-7.778,2.858
							c-7.132,3.63-14.253,7.279-21.43,10.821c-15.549,7.677-31.254,15.023-47.081,22.108
							C301.571,599.559,302.886,601.79,304.395,601.115L304.395,601.115z"/>
					</g>
				</g>
				<g>
					<g>
						<path fill="#fff" d="M333.548,601.115c6.692-3.008,13.347-6.088,19.946-9.296c6.659-3.238,13.868-8.901,20.797-4.765
							c5.97,3.564,10.469,10.039,16.257,14.06c1.371,0.952,2.666-1.29,1.306-2.234c-4.241-2.946-8.034-6.681-11.867-10.133
							c-2.275-2.049-5.841-7.045-9.103-7.826c-3.788-0.907-10.248,4.494-13.31,6.017c-8.361,4.159-16.816,8.114-25.332,11.942
							C330.726,599.562,332.04,601.793,333.548,601.115L333.548,601.115z"/>
					</g>
				</g>
			</g>
			<g>
				<g>
					<g>
						<path fill="#fff" d="M421.008,601.115c13.392-5.995,26.699-12.171,39.894-18.587c6.597-3.207,13.167-6.472,19.71-9.788
							c2.827-1.433,5.857-3.637,8.906-4.555c2.049-2.164,4.225-2.421,6.527-0.771c1.944,0.252,3.498,1.139,4.662,2.66
							c12.547,9.357,22.407,22.422,35.608,31.04c1.399,0.913,2.697-1.327,1.306-2.234c-7.263-4.741-13.708-11.288-20.162-17.037
							c-4.414-3.932-8.802-7.897-13.129-11.925c-1.968-1.832-5.378-6.406-8.339-6.826c-2.702-0.383-5.639,1.769-7.778,2.858
							c-7.132,3.63-14.253,7.279-21.43,10.821c-15.549,7.677-31.254,15.023-47.081,22.108
							C418.185,599.559,419.499,601.79,421.008,601.115L421.008,601.115z"/>
					</g>
				</g>
				<g>
					<g>
						<path fill="#fff" d="M450.162,601.115c6.691-3.008,13.348-6.088,19.946-9.296c6.658-3.238,13.868-8.901,20.797-4.765
							c5.97,3.564,10.469,10.039,16.258,14.06c1.37,0.952,2.666-1.29,1.306-2.234c-4.241-2.946-8.035-6.681-11.867-10.133
							c-2.274-2.049-5.842-7.045-9.103-7.826c-3.787-0.907-10.247,4.494-13.31,6.017c-8.361,4.159-16.816,8.114-25.333,11.942
							C447.339,599.562,448.653,601.793,450.162,601.115L450.162,601.115z"/>
					</g>
				</g>
			</g>
			<g>
				<g>
					<g>
						<path fill="#fff" d="M537.621,601.115c13.391-5.995,26.699-12.171,39.894-18.587c6.597-3.207,13.167-6.472,19.71-9.788
							c2.827-1.433,5.857-3.637,8.906-4.555c2.049-2.164,4.225-2.421,6.528-0.771c1.944,0.252,3.498,1.139,4.662,2.66
							c12.547,9.357,22.407,22.422,35.608,31.04c1.399,0.913,2.697-1.327,1.306-2.234c-7.263-4.741-13.708-11.288-20.162-17.037
							c-4.414-3.932-8.802-7.897-13.129-11.925c-1.969-1.832-5.378-6.406-8.339-6.826c-2.703-0.383-5.639,1.769-7.778,2.858
							c-7.133,3.63-14.253,7.279-21.43,10.821c-15.548,7.677-31.254,15.023-47.081,22.108
							C534.798,599.559,536.113,601.79,537.621,601.115L537.621,601.115z"/>
					</g>
				</g>
				<g>
					<g>
						<path fill="#fff" d="M566.774,601.115c6.692-3.008,13.348-6.088,19.946-9.296c6.659-3.238,13.868-8.901,20.798-4.765
							c5.97,3.564,10.469,10.039,16.257,14.06c1.37,0.952,2.666-1.29,1.306-2.234c-4.241-2.946-8.034-6.681-11.867-10.133
							c-2.274-2.049-5.842-7.045-9.104-7.826c-3.787-0.907-10.247,4.494-13.31,6.017c-8.361,4.159-16.816,8.114-25.333,11.942
							C563.952,599.562,565.267,601.793,566.774,601.115L566.774,601.115z"/>
					</g>
				</g>
			</g>
			<g>
				<g>
					<g>
						<path fill="#fff" d="M654.235,601.115c13.391-5.995,26.699-12.171,39.894-18.587c6.597-3.207,13.167-6.472,19.71-9.788
							c2.827-1.433,5.857-3.637,8.906-4.555c2.049-2.164,4.225-2.421,6.528-0.771c1.943,0.252,3.497,1.139,4.661,2.66
							c12.547,9.357,22.408,22.422,35.608,31.04c1.398,0.913,2.697-1.327,1.306-2.234c-7.263-4.741-13.708-11.288-20.162-17.037
							c-4.415-3.932-8.802-7.897-13.129-11.925c-1.969-1.832-5.378-6.406-8.339-6.826c-2.703-0.383-5.639,1.769-7.779,2.858
							c-7.132,3.63-14.253,7.279-21.429,10.821c-15.549,7.677-31.255,15.023-47.081,22.108
							C651.411,599.559,652.726,601.79,654.235,601.115L654.235,601.115z"/>
					</g>
				</g>
				<g>
					<g>
						<path fill="#fff" d="M683.388,601.115c6.691-3.008,13.347-6.088,19.946-9.296c6.659-3.238,13.868-8.901,20.798-4.765
							c5.97,3.564,10.469,10.039,16.257,14.06c1.371,0.952,2.666-1.29,1.306-2.234c-4.241-2.946-8.034-6.681-11.867-10.133
							c-2.275-2.049-5.841-7.045-9.103-7.826c-3.787-0.907-10.247,4.494-13.31,6.017c-8.361,4.159-16.816,8.114-25.333,11.942
							C680.566,599.562,681.88,601.793,683.388,601.115L683.388,601.115z"/>
					</g>
				</g>
			</g>
			<g>
				<g>
					<g>
						<path fill="#fff" d="M768.34,601.115c13.391-5.995,26.699-12.171,39.894-18.587c6.597-3.207,13.167-6.472,19.71-9.788
							c2.827-1.433,5.857-3.637,8.906-4.555c2.049-2.164,4.225-2.421,6.528-0.771c1.943,0.252,3.497,1.139,4.661,2.66
							c12.547,9.357,22.407,22.422,35.608,31.04c1.398,0.913,2.697-1.327,1.306-2.234c-7.263-4.741-13.708-11.288-20.162-17.037
							c-4.415-3.932-8.802-7.897-13.129-11.925c-1.969-1.832-5.378-6.406-8.339-6.826c-2.703-0.383-5.639,1.769-7.779,2.858
							c-7.132,3.63-14.253,7.279-21.429,10.821c-15.549,7.677-31.255,15.023-47.081,22.108
							C765.516,599.559,766.831,601.79,768.34,601.115L768.34,601.115z"/>
					</g>
				</g>
				<g>
					<g>
						<path fill="#fff" d="M797.492,601.115c6.692-3.008,13.348-6.088,19.946-9.296c6.659-3.238,13.868-8.901,20.797-4.765
							c5.97,3.564,10.469,10.039,16.257,14.06c1.371,0.952,2.666-1.29,1.306-2.234c-4.241-2.946-8.035-6.681-11.867-10.133
							c-2.275-2.049-5.842-7.045-9.103-7.826c-3.787-0.907-10.247,4.494-13.31,6.017c-8.36,4.159-16.816,8.114-25.333,11.942
							C794.671,599.562,795.985,601.793,797.492,601.115L797.492,601.115z"/>
					</g>
				</g>
			</g>
			<g>
				<g>
					<g>
						<path fill="#fff" d="M884.952,601.115c13.392-5.995,26.699-12.171,39.894-18.587c6.597-3.207,13.167-6.472,19.71-9.788
							c2.827-1.433,5.857-3.637,8.905-4.555c2.049-2.164,4.225-2.421,6.527-0.771c1.945,0.252,3.498,1.139,4.662,2.66
							c12.547,9.357,22.408,22.422,35.608,31.04c1.398,0.913,2.697-1.327,1.306-2.234c-7.263-4.741-13.708-11.288-20.162-17.037
							c-4.415-3.932-8.802-7.897-13.13-11.925c-1.968-1.832-5.378-6.406-8.339-6.826c-2.702-0.383-5.638,1.769-7.778,2.858
							c-7.132,3.63-14.253,7.279-21.43,10.821c-15.549,7.677-31.254,15.023-47.081,22.108
							C882.129,599.559,883.444,601.79,884.952,601.115L884.952,601.115z"/>
					</g>
				</g>
				<g>
					<g>
						<path fill="#fff" d="M914.106,601.115c6.692-3.008,13.348-6.088,19.946-9.296c6.659-3.238,13.868-8.901,20.797-4.765
							c5.97,3.564,10.469,10.039,16.257,14.06c1.371,0.952,2.666-1.29,1.306-2.234c-4.241-2.946-8.034-6.681-11.867-10.133
							c-2.275-2.049-5.842-7.045-9.103-7.826c-3.787-0.907-10.247,4.494-13.31,6.017c-8.361,4.159-16.816,8.114-25.333,11.942
							C911.283,599.562,912.598,601.793,914.106,601.115L914.106,601.115z"/>
					</g>
				</g>
			</g>
			<g>
				<g>
					<g>
						<path fill="#fff" d="M1001.566,601.115c13.392-5.995,26.699-12.171,39.895-18.587c6.597-3.207,13.167-6.472,19.71-9.788
							c2.827-1.433,5.857-3.637,8.906-4.555c2.049-2.164,4.224-2.421,6.527-0.771c1.944,0.252,3.498,1.139,4.662,2.66
							c12.547,9.357,22.407,22.422,35.608,31.04c1.398,0.913,2.697-1.327,1.306-2.234c-7.264-4.741-13.708-11.288-20.163-17.037
							c-4.415-3.932-8.802-7.897-13.13-11.925c-1.968-1.832-5.378-6.406-8.339-6.826c-2.702-0.383-5.639,1.769-7.778,2.858
							c-7.132,3.63-14.253,7.279-21.43,10.821c-15.548,7.677-31.254,15.023-47.081,22.108
							C998.743,599.559,1000.057,601.79,1001.566,601.115L1001.566,601.115z"/>
					</g>
				</g>
				<g>
					<g>
						<path fill="#fff" d="M1030.719,601.115c6.692-3.008,13.348-6.088,19.946-9.296c6.658-3.238,13.868-8.901,20.797-4.765
							c5.97,3.564,10.469,10.039,16.257,14.06c1.37,0.952,2.666-1.29,1.306-2.234c-4.241-2.946-8.035-6.681-11.867-10.133
							c-2.275-2.049-5.842-7.045-9.103-7.826c-3.787-0.907-10.247,4.494-13.31,6.017c-8.36,4.159-16.816,8.114-25.333,11.942
							C1027.897,599.562,1029.211,601.793,1030.719,601.115L1030.719,601.115z"/>
					</g>
				</g>
			</g>
		</g>
		<g>
			<g>
				<g>
					<g>
						<path fill="#fff" d="M71.168,601.115c13.392-5.995,26.699-12.171,39.894-18.587c6.597-3.207,13.167-6.472,19.71-9.788
							c2.827-1.433,5.857-3.637,8.906-4.555c2.049-2.164,4.225-2.421,6.527-0.771c1.944,0.252,3.498,1.139,4.662,2.66
							c12.547,9.357,22.408,22.422,35.608,31.04c1.398,0.913,2.697-1.327,1.306-2.234c-7.263-4.741-13.708-11.288-20.162-17.037
							c-4.414-3.932-8.802-7.897-13.129-11.925c-1.968-1.832-5.378-6.406-8.339-6.826c-2.702-0.383-5.639,1.769-7.778,2.858
							c-7.132,3.63-14.253,7.279-21.43,10.821c-15.549,7.677-31.254,15.023-47.081,22.108
							C68.345,599.559,69.659,601.79,71.168,601.115L71.168,601.115z"/>
					</g>
				</g>
				<g>
					<g>
						<path fill="#fff" d="M100.321,601.115c6.692-3.008,13.348-6.088,19.946-9.296c6.659-3.238,13.868-8.901,20.797-4.765
							c5.97,3.564,10.469,10.039,16.257,14.06c1.371,0.952,2.666-1.29,1.306-2.234c-4.241-2.946-8.035-6.681-11.867-10.133
							c-2.275-2.049-5.842-7.045-9.103-7.826c-3.787-0.907-10.247,4.494-13.31,6.017c-8.36,4.159-16.816,8.114-25.332,11.942
							C97.499,599.562,98.813,601.793,100.321,601.115L100.321,601.115z"/>
					</g>
				</g>
			</g>
			<g>
				<g>
					<g>
						<path fill="#fff" d="M187.781,601.115c13.392-5.995,26.699-12.171,39.895-18.587c6.597-3.207,13.167-6.472,19.71-9.788
							c2.827-1.433,5.857-3.637,8.906-4.555c2.049-2.164,4.225-2.421,6.527-0.771c1.944,0.252,3.497,1.139,4.661,2.66
							c12.547,9.357,22.407,22.422,35.608,31.04c1.398,0.913,2.696-1.327,1.306-2.234c-7.263-4.741-13.708-11.288-20.162-17.037
							c-4.415-3.932-8.802-7.897-13.129-11.925c-1.968-1.832-5.378-6.406-8.339-6.826c-2.702-0.383-5.639,1.769-7.778,2.858
							c-7.132,3.63-14.253,7.279-21.43,10.821c-15.549,7.677-31.254,15.023-47.081,22.108
							C184.958,599.559,186.273,601.79,187.781,601.115L187.781,601.115z"/>
					</g>
				</g>
				<g>
					<g>
						<path fill="#fff" d="M216.935,601.115c6.691-3.008,13.348-6.088,19.946-9.296c6.658-3.238,13.868-8.901,20.797-4.765
							c5.97,3.564,10.469,10.039,16.257,14.06c1.37,0.952,2.666-1.29,1.306-2.234c-4.241-2.946-8.034-6.681-11.866-10.133
							c-2.275-2.049-5.842-7.045-9.103-7.826c-3.787-0.907-10.247,4.494-13.31,6.017c-8.361,4.159-16.816,8.114-25.333,11.942
							C214.112,599.562,215.427,601.793,216.935,601.115L216.935,601.115z"/>
					</g>
				</g>
			</g>
			<g>
				<g>
					<g>
						<path fill="#fff" d="M304.395,601.115c13.391-5.995,26.699-12.171,39.894-18.587c6.597-3.207,13.167-6.472,19.71-9.788
							c2.827-1.433,5.857-3.637,8.906-4.555c2.049-2.164,4.225-2.421,6.527-0.771c1.944,0.252,3.498,1.139,4.662,2.66
							c12.547,9.357,22.407,22.422,35.608,31.04c1.399,0.913,2.697-1.327,1.306-2.234c-7.263-4.741-13.708-11.288-20.162-17.037
							c-4.415-3.932-8.802-7.897-13.129-11.925c-1.969-1.832-5.378-6.406-8.339-6.826c-2.703-0.383-5.639,1.769-7.778,2.858
							c-7.132,3.63-14.253,7.279-21.43,10.821c-15.549,7.677-31.254,15.023-47.081,22.108
							C301.571,599.559,302.886,601.79,304.395,601.115L304.395,601.115z"/>
					</g>
				</g>
				<g>
					<g>
						<path fill="#fff" d="M333.548,601.115c6.692-3.008,13.347-6.088,19.946-9.296c6.659-3.238,13.868-8.901,20.797-4.765
							c5.97,3.564,10.469,10.039,16.257,14.06c1.371,0.952,2.666-1.29,1.306-2.234c-4.241-2.946-8.034-6.681-11.867-10.133
							c-2.275-2.049-5.841-7.045-9.103-7.826c-3.788-0.907-10.248,4.494-13.31,6.017c-8.361,4.159-16.816,8.114-25.332,11.942
							C330.726,599.562,332.04,601.793,333.548,601.115L333.548,601.115z"/>
					</g>
				</g>
			</g>
			<g>
				<g>
					<g>
						<path fill="#fff" d="M421.008,601.115c13.392-5.995,26.699-12.171,39.894-18.587c6.597-3.207,13.167-6.472,19.71-9.788
							c2.827-1.433,5.857-3.637,8.906-4.555c2.049-2.164,4.225-2.421,6.527-0.771c1.944,0.252,3.498,1.139,4.662,2.66
							c12.547,9.357,22.407,22.422,35.608,31.04c1.399,0.913,2.697-1.327,1.306-2.234c-7.263-4.741-13.708-11.288-20.162-17.037
							c-4.414-3.932-8.802-7.897-13.129-11.925c-1.968-1.832-5.378-6.406-8.339-6.826c-2.702-0.383-5.639,1.769-7.778,2.858
							c-7.132,3.63-14.253,7.279-21.43,10.821c-15.549,7.677-31.254,15.023-47.081,22.108
							C418.185,599.559,419.499,601.79,421.008,601.115L421.008,601.115z"/>
					</g>
				</g>
				<g>
					<g>
						<path fill="#fff" d="M450.162,601.115c6.691-3.008,13.348-6.088,19.946-9.296c6.658-3.238,13.868-8.901,20.797-4.765
							c5.97,3.564,10.469,10.039,16.258,14.06c1.37,0.952,2.666-1.29,1.306-2.234c-4.241-2.946-8.035-6.681-11.867-10.133
							c-2.274-2.049-5.842-7.045-9.103-7.826c-3.787-0.907-10.247,4.494-13.31,6.017c-8.361,4.159-16.816,8.114-25.333,11.942
							C447.339,599.562,448.653,601.793,450.162,601.115L450.162,601.115z"/>
					</g>
				</g>
			</g>
			<g>
				<g>
					<g>
						<path fill="#fff" d="M537.621,601.115c13.391-5.995,26.699-12.171,39.894-18.587c6.597-3.207,13.167-6.472,19.71-9.788
							c2.827-1.433,5.857-3.637,8.906-4.555c2.049-2.164,4.225-2.421,6.528-0.771c1.944,0.252,3.498,1.139,4.662,2.66
							c12.547,9.357,22.407,22.422,35.608,31.04c1.399,0.913,2.697-1.327,1.306-2.234c-7.263-4.741-13.708-11.288-20.162-17.037
							c-4.414-3.932-8.802-7.897-13.129-11.925c-1.969-1.832-5.378-6.406-8.339-6.826c-2.703-0.383-5.639,1.769-7.778,2.858
							c-7.133,3.63-14.253,7.279-21.43,10.821c-15.548,7.677-31.254,15.023-47.081,22.108
							C534.798,599.559,536.113,601.79,537.621,601.115L537.621,601.115z"/>
					</g>
				</g>
				<g>
					<g>
						<path fill="#fff" d="M566.774,601.115c6.692-3.008,13.348-6.088,19.946-9.296c6.659-3.238,13.868-8.901,20.798-4.765
							c5.97,3.564,10.469,10.039,16.257,14.06c1.37,0.952,2.666-1.29,1.306-2.234c-4.241-2.946-8.034-6.681-11.867-10.133
							c-2.274-2.049-5.842-7.045-9.104-7.826c-3.787-0.907-10.247,4.494-13.31,6.017c-8.361,4.159-16.816,8.114-25.333,11.942
							C563.952,599.562,565.267,601.793,566.774,601.115L566.774,601.115z"/>
					</g>
				</g>
			</g>
			<g>
				<g>
					<g>
						<path fill="#fff" d="M654.235,601.115c13.391-5.995,26.699-12.171,39.894-18.587c6.597-3.207,13.167-6.472,19.71-9.788
							c2.827-1.433,5.857-3.637,8.906-4.555c2.049-2.164,4.225-2.421,6.528-0.771c1.943,0.252,3.497,1.139,4.661,2.66
							c12.547,9.357,22.408,22.422,35.608,31.04c1.398,0.913,2.697-1.327,1.306-2.234c-7.263-4.741-13.708-11.288-20.162-17.037
							c-4.415-3.932-8.802-7.897-13.129-11.925c-1.969-1.832-5.378-6.406-8.339-6.826c-2.703-0.383-5.639,1.769-7.779,2.858
							c-7.132,3.63-14.253,7.279-21.429,10.821c-15.549,7.677-31.255,15.023-47.081,22.108
							C651.411,599.559,652.726,601.79,654.235,601.115L654.235,601.115z"/>
					</g>
				</g>
				<g>
					<g>
						<path fill="#fff" d="M683.388,601.115c6.691-3.008,13.347-6.088,19.946-9.296c6.659-3.238,13.868-8.901,20.798-4.765
							c5.97,3.564,10.469,10.039,16.257,14.06c1.371,0.952,2.666-1.29,1.306-2.234c-4.241-2.946-8.034-6.681-11.867-10.133
							c-2.275-2.049-5.841-7.045-9.103-7.826c-3.787-0.907-10.247,4.494-13.31,6.017c-8.361,4.159-16.816,8.114-25.333,11.942
							C680.566,599.562,681.88,601.793,683.388,601.115L683.388,601.115z"/>
					</g>
				</g>
			</g>
			<g>
				<g>
					<g>
						<path fill="#fff" d="M768.34,601.115c13.391-5.995,26.699-12.171,39.894-18.587c6.597-3.207,13.167-6.472,19.71-9.788
							c2.827-1.433,5.857-3.637,8.906-4.555c2.049-2.164,4.225-2.421,6.528-0.771c1.943,0.252,3.497,1.139,4.661,2.66
							c12.547,9.357,22.407,22.422,35.608,31.04c1.398,0.913,2.697-1.327,1.306-2.234c-7.263-4.741-13.708-11.288-20.162-17.037
							c-4.415-3.932-8.802-7.897-13.129-11.925c-1.969-1.832-5.378-6.406-8.339-6.826c-2.703-0.383-5.639,1.769-7.779,2.858
							c-7.132,3.63-14.253,7.279-21.429,10.821c-15.549,7.677-31.255,15.023-47.081,22.108
							C765.516,599.559,766.831,601.79,768.34,601.115L768.34,601.115z"/>
					</g>
				</g>
				<g>
					<g>
						<path fill="#fff" d="M797.492,601.115c6.692-3.008,13.348-6.088,19.946-9.296c6.659-3.238,13.868-8.901,20.797-4.765
							c5.97,3.564,10.469,10.039,16.257,14.06c1.371,0.952,2.666-1.29,1.306-2.234c-4.241-2.946-8.035-6.681-11.867-10.133
							c-2.275-2.049-5.842-7.045-9.103-7.826c-3.787-0.907-10.247,4.494-13.31,6.017c-8.36,4.159-16.816,8.114-25.333,11.942
							C794.671,599.562,795.985,601.793,797.492,601.115L797.492,601.115z"/>
					</g>
				</g>
			</g>
			<g>
				<g>
					<g>
						<path fill="#fff" d="M884.952,601.115c13.392-5.995,26.699-12.171,39.894-18.587c6.597-3.207,13.167-6.472,19.71-9.788
							c2.827-1.433,5.857-3.637,8.905-4.555c2.049-2.164,4.225-2.421,6.527-0.771c1.945,0.252,3.498,1.139,4.662,2.66
							c12.547,9.357,22.408,22.422,35.608,31.04c1.398,0.913,2.697-1.327,1.306-2.234c-7.263-4.741-13.708-11.288-20.162-17.037
							c-4.415-3.932-8.802-7.897-13.13-11.925c-1.968-1.832-5.378-6.406-8.339-6.826c-2.702-0.383-5.638,1.769-7.778,2.858
							c-7.132,3.63-14.253,7.279-21.43,10.821c-15.549,7.677-31.254,15.023-47.081,22.108
							C882.129,599.559,883.444,601.79,884.952,601.115L884.952,601.115z"/>
					</g>
				</g>
				<g>
					<g>
						<path fill="#fff" d="M914.106,601.115c6.692-3.008,13.348-6.088,19.946-9.296c6.659-3.238,13.868-8.901,20.797-4.765
							c5.97,3.564,10.469,10.039,16.257,14.06c1.371,0.952,2.666-1.29,1.306-2.234c-4.241-2.946-8.034-6.681-11.867-10.133
							c-2.275-2.049-5.842-7.045-9.103-7.826c-3.787-0.907-10.247,4.494-13.31,6.017c-8.361,4.159-16.816,8.114-25.333,11.942
							C911.283,599.562,912.598,601.793,914.106,601.115L914.106,601.115z"/>
					</g>
				</g>
			</g>
			<g>
				<g>
					<g>
						<path fill="#fff" d="M1001.566,601.115c13.392-5.995,26.699-12.171,39.895-18.587c6.597-3.207,13.167-6.472,19.71-9.788
							c2.827-1.433,5.857-3.637,8.906-4.555c2.049-2.164,4.224-2.421,6.527-0.771c1.944,0.252,3.498,1.139,4.662,2.66
							c12.547,9.357,22.407,22.422,35.608,31.04c1.398,0.913,2.697-1.327,1.306-2.234c-7.264-4.741-13.708-11.288-20.163-17.037
							c-4.415-3.932-8.802-7.897-13.13-11.925c-1.968-1.832-5.378-6.406-8.339-6.826c-2.702-0.383-5.639,1.769-7.778,2.858
							c-7.132,3.63-14.253,7.279-21.43,10.821c-15.548,7.677-31.254,15.023-47.081,22.108
							C998.743,599.559,1000.057,601.79,1001.566,601.115L1001.566,601.115z"/>
					</g>
				</g>
				<g>
					<g>
						<path fill="#fff" d="M1030.719,601.115c6.692-3.008,13.348-6.088,19.946-9.296c6.658-3.238,13.868-8.901,20.797-4.765
							c5.97,3.564,10.469,10.039,16.257,14.06c1.37,0.952,2.666-1.29,1.306-2.234c-4.241-2.946-8.035-6.681-11.867-10.133
							c-2.275-2.049-5.842-7.045-9.103-7.826c-3.787-0.907-10.247,4.494-13.31,6.017c-8.36,4.159-16.816,8.114-25.333,11.942
							C1027.897,599.562,1029.211,601.793,1030.719,601.115L1030.719,601.115z"/>
					</g>
				</g>
			</g>
		</g>
		<g>
			<circle fill="#fff" cx="190.505" cy="575.88" r="6.98"/>
		</g>
		<g>
			<circle fill="#fff" cx="306.531" cy="575.88" r="6.98"/>
		</g>
		<g>
			<circle fill="#fff" cx="422.557" cy="575.88" r="6.98"/>
		</g>
		<g>
			<circle fill="#fff" cx="538.582" cy="575.88" r="6.98"/>
		</g>
		<g>
			<circle fill="#fff" cx="654.608" cy="575.88" r="6.98"/>
		</g>
		<g>
			<circle fill="#fff" cx="770.634" cy="575.88" r="6.98"/>
		</g>
		<g>
			<circle fill="#fff" cx="886.66" cy="575.88" r="6.98"/>
		</g>
		<g>
			<circle fill="#fff" cx="1002.686" cy="575.88" r="6.98"/>
		</g>
	</g>
	<g>
		<g>
			<g>
				<g>
					<g>
						<path fill="#fff" d="M69.862,601.115c15.218,6.812,30.324,13.866,45.285,21.224c7.782,3.827,15.479,7.809,23.225,11.705
							c2.325,1.169,4.972,3.258,7.778,2.858c2.939-0.419,6.32-4.948,8.339-6.826c3.987-3.711,8.024-7.367,12.086-10.995
							c6.788-6.064,13.559-12.974,21.206-17.967c1.389-0.907,0.094-3.149-1.306-2.234c-13.196,8.614-23.166,21.542-35.608,31.04
							c-7.43,5.672-11.062,1.926-18.31-1.761c-7.133-3.628-14.298-7.194-21.495-10.693c-13.195-6.416-26.503-12.592-39.894-18.587
							C69.661,598.205,68.343,600.435,69.862,601.115L69.862,601.115z"/>
					</g>
				</g>
				<g>
					<g>
						<path fill="#fff" d="M99.016,601.115c8.517,3.828,16.971,7.785,25.332,11.942c3.01,1.497,9.502,6.923,13.31,6.017
							c3.355-0.798,6.731-5.69,9.103-7.826c3.83-3.45,7.625-7.186,11.867-10.133c1.358-0.944,0.066-3.188-1.306-2.234
							c-5.826,4.047-10.313,10.341-16.257,14.06c-6.598,4.128-12.747-0.829-18.998-3.89c-7.189-3.519-14.445-6.889-21.745-10.171
							C98.815,598.203,97.497,600.432,99.016,601.115L99.016,601.115z"/>
					</g>
				</g>
			</g>
			<g>
				<g>
					<g>
						<path fill="#fff" d="M186.476,601.115c15.217,6.812,30.324,13.866,45.285,21.224c7.781,3.827,15.479,7.809,23.225,11.705
							c2.325,1.169,4.972,3.258,7.778,2.858c2.939-0.419,6.32-4.948,8.339-6.826c3.987-3.711,8.025-7.367,12.086-10.995
							c6.789-6.064,13.559-12.974,21.206-17.967c1.389-0.907,0.094-3.149-1.306-2.234c-13.195,8.614-23.166,21.542-35.608,31.04
							c-7.43,5.672-11.063,1.926-18.311-1.761c-7.133-3.628-14.297-7.194-21.494-10.693c-13.196-6.416-26.503-12.592-39.895-18.587
							C186.274,598.205,184.957,600.435,186.476,601.115L186.476,601.115z"/>
					</g>
				</g>
				<g>
					<g>
						<path fill="#fff" d="M215.629,601.115c8.517,3.828,16.971,7.785,25.333,11.942c3.01,1.497,9.502,6.923,13.31,6.017
							c3.355-0.798,6.731-5.69,9.103-7.826c3.83-3.45,7.625-7.186,11.866-10.133c1.358-0.944,0.067-3.188-1.306-2.234
							c-5.826,4.047-10.313,10.341-16.257,14.06c-6.598,4.128-12.747-0.829-18.998-3.89c-7.189-3.519-14.445-6.889-21.745-10.171
							C215.428,598.203,214.111,600.432,215.629,601.115L215.629,601.115z"/>
					</g>
				</g>
			</g>
			<g>
				<g>
					<g>
						<path fill="#fff" d="M303.089,601.115c15.217,6.812,30.323,13.866,45.285,21.224c7.781,3.827,15.479,7.809,23.225,11.705
							c2.325,1.169,4.972,3.258,7.778,2.858c2.939-0.419,6.32-4.948,8.339-6.826c3.987-3.711,8.024-7.367,12.086-10.995
							c6.788-6.064,13.559-12.974,21.206-17.967c1.389-0.907,0.094-3.149-1.306-2.234c-13.195,8.614-23.166,21.542-35.608,31.04
							c-7.43,5.672-11.063,1.926-18.31-1.761c-7.133-3.628-14.298-7.194-21.495-10.693c-13.195-6.416-26.503-12.592-39.894-18.587
							C302.887,598.205,301.57,600.435,303.089,601.115L303.089,601.115z"/>
					</g>
				</g>
				<g>
					<g>
						<path fill="#fff" d="M332.242,601.115c8.517,3.828,16.971,7.785,25.332,11.942c3.01,1.497,9.502,6.923,13.31,6.017
							c3.355-0.798,6.731-5.69,9.103-7.826c3.831-3.45,7.625-7.186,11.867-10.133c1.358-0.944,0.066-3.188-1.306-2.234
							c-5.826,4.047-10.313,10.341-16.257,14.06c-6.597,4.128-12.747-0.829-18.999-3.89c-7.188-3.519-14.445-6.889-21.745-10.171
							C332.041,598.203,330.724,600.432,332.242,601.115L332.242,601.115z"/>
					</g>
				</g>
			</g>
			<g>
				<g>
					<g>
						<path fill="#fff" d="M419.702,601.115c15.218,6.812,30.324,13.866,45.285,21.224c7.781,3.827,15.479,7.809,23.225,11.705
							c2.325,1.169,4.972,3.258,7.778,2.858c2.939-0.419,6.32-4.948,8.339-6.826c3.987-3.711,8.024-7.367,12.086-10.995
							c6.788-6.064,13.559-12.974,21.206-17.967c1.389-0.907,0.094-3.149-1.306-2.234c-13.195,8.614-23.166,21.542-35.608,31.04
							c-7.43,5.672-11.062,1.926-18.31-1.761c-7.133-3.628-14.298-7.194-21.495-10.693c-13.195-6.416-26.503-12.592-39.894-18.587
							C419.501,598.205,418.183,600.435,419.702,601.115L419.702,601.115z"/>
					</g>
				</g>
				<g>
					<g>
						<path fill="#fff" d="M448.855,601.115c8.517,3.828,16.971,7.785,25.333,11.942c3.01,1.497,9.502,6.923,13.31,6.017
							c3.355-0.798,6.731-5.69,9.103-7.826c3.831-3.45,7.625-7.186,11.867-10.133c1.358-0.944,0.066-3.188-1.306-2.234
							c-5.826,4.047-10.314,10.341-16.258,14.06c-6.597,4.128-12.747-0.829-18.998-3.89c-7.189-3.519-14.445-6.889-21.745-10.171
							C448.655,598.203,447.337,600.432,448.855,601.115L448.855,601.115z"/>
					</g>
				</g>
			</g>
			<g>
				<g>
					<g>
						<path fill="#fff" d="M536.315,601.115c15.218,6.812,30.324,13.866,45.286,21.224c7.781,3.827,15.479,7.809,23.225,11.705
							c2.325,1.169,4.972,3.258,7.778,2.858c2.939-0.419,6.32-4.948,8.339-6.826c3.987-3.711,8.024-7.367,12.086-10.995
							c6.788-6.064,13.559-12.974,21.206-17.967c1.389-0.907,0.094-3.149-1.306-2.234c-13.195,8.614-23.166,21.542-35.608,31.04
							c-7.43,5.672-11.063,1.926-18.311-1.761c-7.133-3.628-14.297-7.194-21.494-10.693c-13.195-6.416-26.503-12.592-39.894-18.587
							C536.114,598.205,534.797,600.435,536.315,601.115L536.315,601.115z"/>
					</g>
				</g>
				<g>
					<g>
						<path fill="#fff" d="M565.469,601.115c8.517,3.828,16.971,7.785,25.333,11.942c3.01,1.497,9.502,6.923,13.31,6.017
							c3.356-0.798,6.731-5.69,9.104-7.826c3.83-3.45,7.625-7.186,11.867-10.133c1.358-0.944,0.066-3.188-1.306-2.234
							c-5.826,4.047-10.314,10.341-16.257,14.06c-6.598,4.128-12.747-0.829-18.999-3.89c-7.188-3.519-14.445-6.889-21.745-10.171
							C565.268,598.203,563.951,600.432,565.469,601.115L565.469,601.115z"/>
					</g>
				</g>
			</g>
			<g>
				<g>
					<g>
						<path fill="#fff" d="M652.929,601.115c15.218,6.812,30.324,13.866,45.285,21.224c7.781,3.827,15.479,7.809,23.225,11.705
							c2.325,1.169,4.972,3.258,7.779,2.858c2.939-0.419,6.32-4.948,8.339-6.826c3.987-3.711,8.024-7.367,12.086-10.995
							c6.788-6.064,13.559-12.974,21.206-17.967c1.389-0.907,0.094-3.149-1.306-2.234c-13.195,8.614-23.166,21.542-35.608,31.04
							c-7.429,5.672-11.062,1.926-18.31-1.761c-7.133-3.628-14.297-7.194-21.494-10.693c-13.196-6.416-26.503-12.592-39.894-18.587
							C652.728,598.205,651.41,600.435,652.929,601.115L652.929,601.115z"/>
					</g>
				</g>
				<g>
					<g>
						<path fill="#fff" d="M682.082,601.115c8.517,3.828,16.971,7.785,25.333,11.942c3.01,1.497,9.502,6.923,13.31,6.017
							c3.356-0.798,6.731-5.69,9.103-7.826c3.83-3.45,7.625-7.186,11.867-10.133c1.358-0.944,0.066-3.188-1.306-2.234
							c-5.826,4.047-10.313,10.341-16.257,14.06c-6.598,4.128-12.747-0.829-18.999-3.89c-7.189-3.519-14.445-6.889-21.745-10.171
							C681.881,598.203,680.564,600.432,682.082,601.115L682.082,601.115z"/>
					</g>
				</g>
			</g>
			<g>
				<g>
					<g>
						<path fill="#fff" d="M767.033,601.115c15.218,6.812,30.324,13.866,45.285,21.224c7.781,3.827,15.479,7.809,23.225,11.705
							c2.325,1.169,4.972,3.258,7.779,2.858c2.938-0.419,6.32-4.948,8.339-6.826c3.987-3.711,8.024-7.367,12.085-10.995
							c6.789-6.064,13.559-12.974,21.206-17.967c1.389-0.907,0.094-3.149-1.306-2.234c-13.195,8.614-23.166,21.542-35.608,31.04
							c-7.43,5.672-11.062,1.926-18.31-1.761c-7.133-3.628-14.297-7.194-21.494-10.693c-13.195-6.416-26.503-12.592-39.894-18.587
							C766.832,598.205,765.514,600.435,767.033,601.115L767.033,601.115z"/>
					</g>
				</g>
				<g>
					<g>
						<path fill="#fff" d="M796.187,601.115c8.517,3.828,16.971,7.785,25.333,11.942c3.01,1.497,9.502,6.923,13.31,6.017
							c3.356-0.798,6.731-5.69,9.103-7.826c3.83-3.45,7.625-7.186,11.867-10.133c1.358-0.944,0.066-3.188-1.306-2.234
							c-5.826,4.047-10.313,10.341-16.257,14.06c-6.597,4.128-12.747-0.829-18.998-3.89c-7.189-3.519-14.445-6.889-21.745-10.171
							C795.986,598.203,794.669,600.432,796.187,601.115L796.187,601.115z"/>
					</g>
				</g>
			</g>
			<g>
				<g>
					<g>
						<path fill="#fff" d="M883.647,601.115c15.218,6.812,30.324,13.866,45.285,21.224c7.781,3.827,15.479,7.809,23.225,11.705
							c2.325,1.169,4.972,3.258,7.778,2.858c2.939-0.419,6.32-4.948,8.339-6.826c3.987-3.711,8.024-7.367,12.086-10.995
							c6.788-6.064,13.559-12.974,21.206-17.967c1.39-0.907,0.094-3.149-1.306-2.234c-13.196,8.614-23.166,21.542-35.608,31.04
							c-7.43,5.672-11.062,1.926-18.31-1.761c-7.133-3.628-14.298-7.194-21.495-10.693c-13.195-6.416-26.503-12.592-39.894-18.587
							C883.445,598.205,882.128,600.435,883.647,601.115L883.647,601.115z"/>
					</g>
				</g>
				<g>
					<g>
						<path fill="#fff" d="M912.8,601.115c8.517,3.828,16.971,7.785,25.333,11.942c3.01,1.497,9.502,6.923,13.31,6.017
							c3.355-0.798,6.731-5.69,9.103-7.826c3.83-3.45,7.625-7.186,11.867-10.133c1.358-0.944,0.066-3.188-1.306-2.234
							c-5.826,4.047-10.313,10.341-16.257,14.06c-6.597,4.128-12.747-0.829-18.998-3.89c-7.188-3.519-14.445-6.889-21.745-10.171
							C912.599,598.203,911.282,600.432,912.8,601.115L912.8,601.115z"/>
					</g>
				</g>
			</g>
			<g>
				<g>
					<g>
						<path fill="#fff" d="M1000.26,601.115c15.218,6.812,30.324,13.866,45.285,21.224c7.781,3.827,15.479,7.809,23.225,11.705
							c2.325,1.169,4.972,3.258,7.778,2.858c2.939-0.419,6.32-4.948,8.339-6.826c3.987-3.711,8.024-7.367,12.086-10.995
							c6.788-6.064,13.559-12.974,21.207-17.967c1.389-0.907,0.094-3.149-1.306-2.234c-13.195,8.614-23.166,21.542-35.608,31.04
							c-7.43,5.672-11.062,1.926-18.31-1.761c-7.133-3.628-14.298-7.194-21.494-10.693c-13.196-6.416-26.503-12.592-39.895-18.587
							C1000.059,598.205,998.741,600.435,1000.26,601.115L1000.26,601.115z"/>
					</g>
				</g>
				<g>
					<g>
						<path fill="#fff" d="M1029.413,601.115c8.517,3.828,16.971,7.785,25.333,11.942c3.01,1.497,9.502,6.923,13.31,6.017
							c3.355-0.798,6.731-5.69,9.103-7.826c3.83-3.45,7.625-7.186,11.867-10.133c1.358-0.944,0.066-3.188-1.306-2.234
							c-5.826,4.047-10.313,10.341-16.257,14.06c-6.598,4.128-12.747-0.829-18.998-3.89c-7.188-3.519-14.445-6.889-21.745-10.171
							C1029.213,598.203,1027.895,600.432,1029.413,601.115L1029.413,601.115z"/>
					</g>
				</g>
			</g>
		</g>
		<g>
			<g>
				<g>
					<g>
						<path fill="#fff" d="M69.862,601.115c15.218,6.812,30.324,13.866,45.285,21.224c7.782,3.827,15.479,7.809,23.225,11.705
							c2.325,1.169,4.972,3.258,7.778,2.858c2.939-0.419,6.32-4.948,8.339-6.826c3.987-3.711,8.024-7.367,12.086-10.995
							c6.788-6.064,13.559-12.974,21.206-17.967c1.389-0.907,0.094-3.149-1.306-2.234c-13.196,8.614-23.166,21.542-35.608,31.04
							c-7.43,5.672-11.062,1.926-18.31-1.761c-7.133-3.628-14.298-7.194-21.495-10.693c-13.195-6.416-26.503-12.592-39.894-18.587
							C69.661,598.205,68.343,600.435,69.862,601.115L69.862,601.115z"/>
					</g>
				</g>
				<g>
					<g>
						<path fill="#fff" d="M99.016,601.115c8.517,3.828,16.971,7.785,25.332,11.942c3.01,1.497,9.502,6.923,13.31,6.017
							c3.355-0.798,6.731-5.69,9.103-7.826c3.83-3.45,7.625-7.186,11.867-10.133c1.358-0.944,0.066-3.188-1.306-2.234
							c-5.826,4.047-10.313,10.341-16.257,14.06c-6.598,4.128-12.747-0.829-18.998-3.89c-7.189-3.519-14.445-6.889-21.745-10.171
							C98.815,598.203,97.497,600.432,99.016,601.115L99.016,601.115z"/>
					</g>
				</g>
			</g>
			<g>
				<g>
					<g>
						<path fill="#fff" d="M186.476,601.115c15.217,6.812,30.324,13.866,45.285,21.224c7.781,3.827,15.479,7.809,23.225,11.705
							c2.325,1.169,4.972,3.258,7.778,2.858c2.939-0.419,6.32-4.948,8.339-6.826c3.987-3.711,8.025-7.367,12.086-10.995
							c6.789-6.064,13.559-12.974,21.206-17.967c1.389-0.907,0.094-3.149-1.306-2.234c-13.195,8.614-23.166,21.542-35.608,31.04
							c-7.43,5.672-11.063,1.926-18.311-1.761c-7.133-3.628-14.297-7.194-21.494-10.693c-13.196-6.416-26.503-12.592-39.895-18.587
							C186.274,598.205,184.957,600.435,186.476,601.115L186.476,601.115z"/>
					</g>
				</g>
				<g>
					<g>
						<path fill="#fff" d="M215.629,601.115c8.517,3.828,16.971,7.785,25.333,11.942c3.01,1.497,9.502,6.923,13.31,6.017
							c3.355-0.798,6.731-5.69,9.103-7.826c3.83-3.45,7.625-7.186,11.866-10.133c1.358-0.944,0.067-3.188-1.306-2.234
							c-5.826,4.047-10.313,10.341-16.257,14.06c-6.598,4.128-12.747-0.829-18.998-3.89c-7.189-3.519-14.445-6.889-21.745-10.171
							C215.428,598.203,214.111,600.432,215.629,601.115L215.629,601.115z"/>
					</g>
				</g>
			</g>
			<g>
				<g>
					<g>
						<path fill="#fff" d="M303.089,601.115c15.217,6.812,30.323,13.866,45.285,21.224c7.781,3.827,15.479,7.809,23.225,11.705
							c2.325,1.169,4.972,3.258,7.778,2.858c2.939-0.419,6.32-4.948,8.339-6.826c3.987-3.711,8.024-7.367,12.086-10.995
							c6.788-6.064,13.559-12.974,21.206-17.967c1.389-0.907,0.094-3.149-1.306-2.234c-13.195,8.614-23.166,21.542-35.608,31.04
							c-7.43,5.672-11.063,1.926-18.31-1.761c-7.133-3.628-14.298-7.194-21.495-10.693c-13.195-6.416-26.503-12.592-39.894-18.587
							C302.887,598.205,301.57,600.435,303.089,601.115L303.089,601.115z"/>
					</g>
				</g>
				<g>
					<g>
						<path fill="#fff" d="M332.242,601.115c8.517,3.828,16.971,7.785,25.332,11.942c3.01,1.497,9.502,6.923,13.31,6.017
							c3.355-0.798,6.731-5.69,9.103-7.826c3.831-3.45,7.625-7.186,11.867-10.133c1.358-0.944,0.066-3.188-1.306-2.234
							c-5.826,4.047-10.313,10.341-16.257,14.06c-6.597,4.128-12.747-0.829-18.999-3.89c-7.188-3.519-14.445-6.889-21.745-10.171
							C332.041,598.203,330.724,600.432,332.242,601.115L332.242,601.115z"/>
					</g>
				</g>
			</g>
			<g>
				<g>
					<g>
						<path fill="#fff" d="M419.702,601.115c15.218,6.812,30.324,13.866,45.285,21.224c7.781,3.827,15.479,7.809,23.225,11.705
							c2.325,1.169,4.972,3.258,7.778,2.858c2.939-0.419,6.32-4.948,8.339-6.826c3.987-3.711,8.024-7.367,12.086-10.995
							c6.788-6.064,13.559-12.974,21.206-17.967c1.389-0.907,0.094-3.149-1.306-2.234c-13.195,8.614-23.166,21.542-35.608,31.04
							c-7.43,5.672-11.062,1.926-18.31-1.761c-7.133-3.628-14.298-7.194-21.495-10.693c-13.195-6.416-26.503-12.592-39.894-18.587
							C419.501,598.205,418.183,600.435,419.702,601.115L419.702,601.115z"/>
					</g>
				</g>
				<g>
					<g>
						<path fill="#fff" d="M448.855,601.115c8.517,3.828,16.971,7.785,25.333,11.942c3.01,1.497,9.502,6.923,13.31,6.017
							c3.355-0.798,6.731-5.69,9.103-7.826c3.831-3.45,7.625-7.186,11.867-10.133c1.358-0.944,0.066-3.188-1.306-2.234
							c-5.826,4.047-10.314,10.341-16.258,14.06c-6.597,4.128-12.747-0.829-18.998-3.89c-7.189-3.519-14.445-6.889-21.745-10.171
							C448.655,598.203,447.337,600.432,448.855,601.115L448.855,601.115z"/>
					</g>
				</g>
			</g>
			<g>
				<g>
					<g>
						<path fill="#fff" d="M536.315,601.115c15.218,6.812,30.324,13.866,45.286,21.224c7.781,3.827,15.479,7.809,23.225,11.705
							c2.325,1.169,4.972,3.258,7.778,2.858c2.939-0.419,6.32-4.948,8.339-6.826c3.987-3.711,8.024-7.367,12.086-10.995
							c6.788-6.064,13.559-12.974,21.206-17.967c1.389-0.907,0.094-3.149-1.306-2.234c-13.195,8.614-23.166,21.542-35.608,31.04
							c-7.43,5.672-11.063,1.926-18.311-1.761c-7.133-3.628-14.297-7.194-21.494-10.693c-13.195-6.416-26.503-12.592-39.894-18.587
							C536.114,598.205,534.797,600.435,536.315,601.115L536.315,601.115z"/>
					</g>
				</g>
				<g>
					<g>
						<path fill="#fff" d="M565.469,601.115c8.517,3.828,16.971,7.785,25.333,11.942c3.01,1.497,9.502,6.923,13.31,6.017
							c3.356-0.798,6.731-5.69,9.104-7.826c3.83-3.45,7.625-7.186,11.867-10.133c1.358-0.944,0.066-3.188-1.306-2.234
							c-5.826,4.047-10.314,10.341-16.257,14.06c-6.598,4.128-12.747-0.829-18.999-3.89c-7.188-3.519-14.445-6.889-21.745-10.171
							C565.268,598.203,563.951,600.432,565.469,601.115L565.469,601.115z"/>
					</g>
				</g>
			</g>
			<g>
				<g>
					<g>
						<path fill="#fff" d="M652.929,601.115c15.218,6.812,30.324,13.866,45.285,21.224c7.781,3.827,15.479,7.809,23.225,11.705
							c2.325,1.169,4.972,3.258,7.779,2.858c2.939-0.419,6.32-4.948,8.339-6.826c3.987-3.711,8.024-7.367,12.086-10.995
							c6.788-6.064,13.559-12.974,21.206-17.967c1.389-0.907,0.094-3.149-1.306-2.234c-13.195,8.614-23.166,21.542-35.608,31.04
							c-7.429,5.672-11.062,1.926-18.31-1.761c-7.133-3.628-14.297-7.194-21.494-10.693c-13.196-6.416-26.503-12.592-39.894-18.587
							C652.728,598.205,651.41,600.435,652.929,601.115L652.929,601.115z"/>
					</g>
				</g>
				<g>
					<g>
						<path fill="#fff" d="M682.082,601.115c8.517,3.828,16.971,7.785,25.333,11.942c3.01,1.497,9.502,6.923,13.31,6.017
							c3.356-0.798,6.731-5.69,9.103-7.826c3.83-3.45,7.625-7.186,11.867-10.133c1.358-0.944,0.066-3.188-1.306-2.234
							c-5.826,4.047-10.313,10.341-16.257,14.06c-6.598,4.128-12.747-0.829-18.999-3.89c-7.189-3.519-14.445-6.889-21.745-10.171
							C681.881,598.203,680.564,600.432,682.082,601.115L682.082,601.115z"/>
					</g>
				</g>
			</g>
			<g>
				<g>
					<g>
						<path fill="#fff" d="M767.033,601.115c15.218,6.812,30.324,13.866,45.285,21.224c7.781,3.827,15.479,7.809,23.225,11.705
							c2.325,1.169,4.972,3.258,7.779,2.858c2.938-0.419,6.32-4.948,8.339-6.826c3.987-3.711,8.024-7.367,12.085-10.995
							c6.789-6.064,13.559-12.974,21.206-17.967c1.389-0.907,0.094-3.149-1.306-2.234c-13.195,8.614-23.166,21.542-35.608,31.04
							c-7.43,5.672-11.062,1.926-18.31-1.761c-7.133-3.628-14.297-7.194-21.494-10.693c-13.195-6.416-26.503-12.592-39.894-18.587
							C766.832,598.205,765.514,600.435,767.033,601.115L767.033,601.115z"/>
					</g>
				</g>
				<g>
					<g>
						<path fill="#fff" d="M796.187,601.115c8.517,3.828,16.971,7.785,25.333,11.942c3.01,1.497,9.502,6.923,13.31,6.017
							c3.356-0.798,6.731-5.69,9.103-7.826c3.83-3.45,7.625-7.186,11.867-10.133c1.358-0.944,0.066-3.188-1.306-2.234
							c-5.826,4.047-10.313,10.341-16.257,14.06c-6.597,4.128-12.747-0.829-18.998-3.89c-7.189-3.519-14.445-6.889-21.745-10.171
							C795.986,598.203,794.669,600.432,796.187,601.115L796.187,601.115z"/>
					</g>
				</g>
			</g>
			<g>
				<g>
					<g>
						<path fill="#fff" d="M883.647,601.115c15.218,6.812,30.324,13.866,45.285,21.224c7.781,3.827,15.479,7.809,23.225,11.705
							c2.325,1.169,4.972,3.258,7.778,2.858c2.939-0.419,6.32-4.948,8.339-6.826c3.987-3.711,8.024-7.367,12.086-10.995
							c6.788-6.064,13.559-12.974,21.206-17.967c1.39-0.907,0.094-3.149-1.306-2.234c-13.196,8.614-23.166,21.542-35.608,31.04
							c-7.43,5.672-11.062,1.926-18.31-1.761c-7.133-3.628-14.298-7.194-21.495-10.693c-13.195-6.416-26.503-12.592-39.894-18.587
							C883.445,598.205,882.128,600.435,883.647,601.115L883.647,601.115z"/>
					</g>
				</g>
				<g>
					<g>
						<path fill="#fff" d="M912.8,601.115c8.517,3.828,16.971,7.785,25.333,11.942c3.01,1.497,9.502,6.923,13.31,6.017
							c3.355-0.798,6.731-5.69,9.103-7.826c3.83-3.45,7.625-7.186,11.867-10.133c1.358-0.944,0.066-3.188-1.306-2.234
							c-5.826,4.047-10.313,10.341-16.257,14.06c-6.597,4.128-12.747-0.829-18.998-3.89c-7.188-3.519-14.445-6.889-21.745-10.171
							C912.599,598.203,911.282,600.432,912.8,601.115L912.8,601.115z"/>
					</g>
				</g>
			</g>
			<g>
				<g>
					<g>
						<path fill="#fff" d="M1000.26,601.115c15.218,6.812,30.324,13.866,45.285,21.224c7.781,3.827,15.479,7.809,23.225,11.705
							c2.325,1.169,4.972,3.258,7.778,2.858c2.939-0.419,6.32-4.948,8.339-6.826c3.987-3.711,8.024-7.367,12.086-10.995
							c6.788-6.064,13.559-12.974,21.207-17.967c1.389-0.907,0.094-3.149-1.306-2.234c-13.195,8.614-23.166,21.542-35.608,31.04
							c-7.43,5.672-11.062,1.926-18.31-1.761c-7.133-3.628-14.298-7.194-21.494-10.693c-13.196-6.416-26.503-12.592-39.895-18.587
							C1000.059,598.205,998.741,600.435,1000.26,601.115L1000.26,601.115z"/>
					</g>
				</g>
				<g>
					<g>
						<path fill="#fff" d="M1029.413,601.115c8.517,3.828,16.971,7.785,25.333,11.942c3.01,1.497,9.502,6.923,13.31,6.017
							c3.355-0.798,6.731-5.69,9.103-7.826c3.83-3.45,7.625-7.186,11.867-10.133c1.358-0.944,0.066-3.188-1.306-2.234
							c-5.826,4.047-10.313,10.341-16.257,14.06c-6.598,4.128-12.747-0.829-18.998-3.89c-7.188-3.519-14.445-6.889-21.745-10.171
							C1029.213,598.203,1027.895,600.432,1029.413,601.115L1029.413,601.115z"/>
					</g>
				</g>
			</g>
		</g>
		<g>
			<circle fill="#fff" cx="190.505" cy="624.115" r="6.98"/>
		</g>
		<g>
			<circle fill="#fff" cx="306.531" cy="624.115" r="6.98"/>
		</g>
		<g>
			<circle fill="#fff" cx="422.557" cy="624.115" r="6.98"/>
		</g>
		<g>
			<circle fill="#fff" cx="538.582" cy="624.115" r="6.98"/>
		</g>
		<g>
			<circle fill="#fff" cx="654.608" cy="624.115" r="6.98"/>
		</g>
		<g>
			<circle fill="#fff" cx="770.634" cy="624.115" r="6.98"/>
		</g>
		<g>
			<circle fill="#fff" cx="886.66" cy="624.115" r="6.98"/>
		</g>
		<g>
			<circle fill="#fff" cx="1002.686" cy="624.115" r="6.98"/>
		</g>
	</g>
</g>
</svg>
