<svg width="625" height="32" viewBox="0 0 625 32" fill="none" xmlns="http://www.w3.org/2000/svg">
<path d="M271.544 0.834922C196.481 0.834922 0.858307 1.88492 0.858307 1.88492C0.858307 1.88492 196.481 2.92992 271.544 2.92992C274.285 2.83492 274.285 0.834922 271.544 0.834922ZM301.214 12.0899C300.222 12.4749 298.973 12.6649 297.849 12.6649C295.732 12.5699 293.734 11.8999 292.117 10.8499C291.368 10.3749 290.744 9.89492 290.119 9.32492C289.62 8.84492 289.12 8.36992 288.745 7.79992C288.003 6.84492 287.378 6.07992 286.754 5.41492C285.63 4.26992 284.138 3.31492 282.389 2.83492C281.016 2.45492 279.649 2.26492 278.15 2.26492C277.775 2.26492 277.276 2.26492 276.901 2.35992L276.402 2.45492L276.776 2.26492C277.151 2.07492 277.526 1.78992 277.9 1.68992C279.399 1.02492 281.141 0.644922 282.889 0.544922C284.138 0.544922 285.38 0.644922 286.629 0.929922C288.128 1.30992 289.495 1.88492 290.619 2.64492C292.985 4.26992 294.484 6.26992 296.107 7.22492C296.725 7.60492 297.474 7.98992 298.224 8.08492C298.473 8.08492 298.723 8.08492 298.973 8.08492C299.223 8.08492 299.597 7.98992 299.847 7.79992C300.465 7.50992 300.84 7.12992 301.089 6.55992C301.339 6.07992 301.214 5.60492 300.965 5.12492C300.347 4.26992 299.223 3.59992 297.974 3.40992C297.599 3.31492 297.1 3.31492 296.725 3.31492H296.232C296.725 3.02992 297.225 2.73992 297.849 2.64492C300.965 1.97992 304.212 3.31492 305.079 5.69992C305.204 5.98492 305.204 6.26992 305.329 6.65492C305.454 8.94492 303.837 11.0399 301.214 12.0899ZM275.159 6.65492C199.978 6.65492 52.8501 5.60492 52.8501 5.60492C52.8501 5.60492 200.097 4.55492 275.159 4.55492C277.9 4.64992 277.9 6.65492 275.159 6.65492ZM280.023 10.4699C204.836 10.4699 104.592 9.41992 104.592 9.41992C104.592 9.41992 204.836 8.36992 280.023 8.36992C282.764 8.36992 282.764 10.4699 280.023 10.4699ZM285.005 9.22992C286.504 11.1349 288.745 12.6649 291.368 13.7149C292.242 14.0949 293.11 14.2849 294.109 14.5699C294.983 14.7599 296.232 14.8599 297.349 15.0499C298.598 15.2399 299.847 15.4299 300.965 15.8099C302.213 16.1949 303.337 16.9549 304.212 17.8149C304.954 18.6749 305.204 19.8199 304.954 20.7749C304.705 21.6299 303.837 22.3949 302.838 22.7749C301.964 23.0649 301.089 23.0649 300.222 22.7749C299.722 22.5849 299.098 22.3949 298.723 22.1099C298.349 21.9199 297.974 21.6299 297.724 21.3449C297.724 21.3449 298.224 21.5349 298.973 21.7249C299.472 21.8199 299.972 21.9199 300.465 21.9199C300.965 21.9199 301.589 21.8199 301.964 21.5349C302.338 21.2499 302.588 20.8699 302.588 20.3899C302.588 19.9149 302.338 19.4349 301.839 19.0549C301.214 18.5799 300.59 18.2899 299.847 18.0999C298.848 17.8149 297.724 17.7199 296.725 17.5299C295.483 17.3399 294.359 17.1499 293.11 16.8599C291.992 16.4799 290.869 16.0999 289.869 15.5249C288.253 14.5699 286.879 13.4249 285.88 12.0899C285.255 11.2299 284.756 10.2799 284.506 9.22992C284.388 8.94492 284.388 8.65492 284.388 8.46492V8.17992L284.506 8.36992C284.631 8.74992 284.881 9.03992 285.005 9.22992ZM307.077 26.3999C305.579 27.2599 303.712 27.6399 301.839 27.4499C300.715 27.3549 299.597 26.9749 298.723 26.3999C298.349 26.2099 298.099 26.0199 297.849 25.7349C298.224 25.8299 298.598 25.9249 298.973 26.0199C299.972 26.2099 300.965 26.2099 301.839 26.1149C303.088 25.9249 304.336 25.4499 305.204 24.6849C306.203 23.8249 306.703 22.6799 306.703 21.6299C306.703 20.2949 306.578 18.8649 306.453 17.5299C306.328 16.2899 306.453 14.9549 306.828 13.7149C307.077 12.8549 307.702 12.0899 308.451 11.4249C308.694 11.2299 308.944 11.1349 309.194 10.9449L309.444 10.8499L309.319 11.0399C309.194 11.2299 309.069 11.4249 309.069 11.6149C308.819 12.3749 308.694 13.1399 308.819 13.9049C308.944 15.0499 309.194 16.0999 309.693 17.2449C310.318 18.7699 310.568 20.2949 310.568 21.8199C310.568 22.7749 310.193 23.6349 309.693 24.4949C308.819 25.1599 308.076 25.8299 307.077 26.3999ZM353.456 2.92992C350.715 2.92992 350.715 0.929922 353.456 0.929922C428.643 0.929922 624.142 1.97992 624.142 1.97992C624.142 1.97992 428.643 2.83492 353.456 2.92992ZM346.85 2.35992C345.351 2.35992 343.984 2.45492 342.611 2.92992C340.862 3.40992 339.37 4.36492 338.246 5.50992C337.622 6.17492 336.997 6.93992 336.255 7.89492C335.88 8.36992 335.38 8.94492 334.881 9.41992C334.256 9.98992 333.632 10.4699 333.008 10.9449C331.391 11.9949 329.392 12.6649 327.276 12.7599C323.286 12.7599 319.921 10.3749 319.921 7.22492C319.921 7.03492 319.921 6.93992 319.921 6.74992C320.171 4.26992 323.036 2.45492 326.152 2.64492C326.527 2.64492 326.901 2.73992 327.401 2.83492C328.025 2.92992 328.525 3.21992 329.018 3.50492H328.525C328.15 3.50492 327.651 3.50492 327.276 3.59992C326.027 3.78992 324.903 4.45992 324.285 5.31492C324.035 5.79492 323.911 6.26992 324.16 6.74992C324.41 7.22492 324.778 7.70492 325.403 7.98992C325.652 8.08492 325.902 8.17992 326.277 8.27492C326.527 8.27492 326.776 8.27492 327.026 8.27492C327.775 8.08492 328.525 7.79992 329.143 7.41492C330.766 6.45992 332.265 4.45992 334.631 2.83492C335.755 2.07492 337.122 1.49992 338.621 1.11992C339.87 0.834922 341.112 0.644922 342.361 0.739922C344.109 0.739922 345.851 1.11992 347.35 1.88492C347.724 2.07492 348.099 2.26492 348.474 2.45492L348.842 2.64492L348.349 2.54992C347.724 2.45492 347.35 2.35992 346.85 2.35992ZM349.841 6.74992C347.1 6.74992 347.1 4.74492 349.841 4.74492C425.022 4.74492 572.15 5.79492 572.15 5.79492C572.15 5.79492 425.022 6.65492 349.841 6.74992ZM344.977 8.46492C420.164 8.46492 520.408 9.51492 520.408 9.51492C520.408 9.51492 420.164 10.5649 344.977 10.5649C342.361 10.4699 342.361 8.36992 344.977 8.46492ZM324.653 22.1099C325.153 22.1099 325.652 22.0149 326.152 21.9199C327.026 21.7249 327.401 21.5349 327.401 21.5349C327.026 21.8199 326.776 22.0149 326.402 22.2999C325.902 22.5849 325.403 22.8699 324.903 22.9649C324.035 23.2549 323.161 23.2549 322.287 22.9649C321.163 22.5849 320.42 21.7249 320.171 20.8699C319.921 19.8199 320.171 18.7699 320.913 17.9099C321.663 17.0499 322.787 16.2899 324.035 15.9049C325.153 15.5249 326.402 15.2399 327.651 15.1449C328.768 14.9549 330.017 14.8599 330.891 14.6649C331.765 14.4749 332.758 14.1899 333.632 13.8099C336.255 12.7599 338.496 11.2299 339.995 9.32492C340.244 9.13492 340.369 8.84492 340.494 8.65492L340.619 8.46492V8.74992C340.619 9.03992 340.494 9.32492 340.494 9.51492C340.244 10.5649 339.87 11.5199 339.12 12.3749C338.121 13.7149 336.747 14.9549 335.131 15.8099C334.131 16.3849 333.132 16.8599 331.89 17.1499C330.766 17.4349 329.517 17.7199 328.275 17.8149C327.151 17.9099 326.152 18.0999 325.153 18.3899C324.41 18.5799 323.661 18.8649 323.161 19.3399C322.662 19.7249 322.412 20.1049 322.412 20.6749C322.412 21.1549 322.662 21.5349 323.036 21.8199C323.661 21.9199 324.16 22.1099 324.653 22.1099ZM318.547 21.6299C318.547 22.7749 319.047 23.8249 320.046 24.6849C320.913 25.4499 322.037 25.9249 323.286 26.1149C324.285 26.2099 325.278 26.2099 326.152 26.0199C326.527 25.9249 326.901 25.8299 327.276 25.7349C327.026 26.0199 326.776 26.2099 326.402 26.3999C325.528 26.9749 324.41 27.3549 323.286 27.4499C321.413 27.6399 319.546 27.2599 318.048 26.3999C317.173 25.8299 316.431 25.1599 315.806 24.3999C315.307 23.5399 314.932 22.6799 314.932 21.7249C314.932 20.1999 315.182 18.5799 315.806 17.1499C316.181 16.0999 316.549 14.9549 316.674 13.8099C316.799 13.0449 316.674 12.2799 316.431 11.5199C316.306 11.3299 316.181 11.1349 316.181 10.9449L316.056 10.7549L316.306 10.8499C316.549 10.9449 316.799 11.1349 317.048 11.3299C317.798 11.9949 318.422 12.7599 318.672 13.6199C319.047 14.8599 319.172 16.1949 319.047 17.4349C318.672 18.7699 318.547 20.1999 318.547 21.6299ZM317.048 26.8799C317.798 27.2599 318.422 27.6399 318.922 28.2149C319.296 28.6899 319.671 29.1699 319.921 29.6449C320.046 30.0249 320.171 30.3149 320.171 30.6949C320.171 30.9799 320.171 31.0749 320.171 31.0749C319.921 30.6949 319.546 30.3149 319.172 29.9299C318.797 29.5499 318.422 29.2649 317.923 28.9799C317.298 28.5949 316.799 28.3099 316.181 28.0249C315.432 27.6399 314.807 27.2599 314.183 26.7849C313.683 26.3049 313.433 25.8299 313.184 25.2549C313.059 24.7799 313.184 24.2049 313.558 23.8249C313.558 23.9199 313.558 24.1099 313.558 24.2049C313.558 24.4949 313.808 24.7799 314.058 25.0649C314.432 25.4499 314.807 25.7349 315.182 26.0199C315.806 26.2099 316.431 26.4949 317.048 26.8799ZM310.817 26.7849C310.193 27.2599 309.568 27.6399 308.819 28.0249C308.201 28.3099 307.577 28.5949 307.077 28.9799C306.578 29.2649 306.203 29.5499 305.828 29.9299C305.454 30.3149 305.079 30.6949 304.829 31.0749C304.829 31.0749 304.829 30.9799 304.829 30.6949C304.829 30.3149 304.954 30.0249 305.079 29.6449C305.329 29.1699 305.579 28.5949 306.078 28.2149C306.578 27.7349 307.202 27.2599 307.952 26.8799C308.694 26.4949 309.319 26.2099 309.818 25.9249C310.318 25.6399 310.692 25.3499 310.942 24.9699C311.192 24.6849 311.317 24.3999 311.442 24.1099C311.442 24.0149 311.442 23.8249 311.442 23.7299C311.816 24.1099 311.941 24.6849 311.816 25.1599C311.692 25.7349 311.317 26.3049 310.817 26.7849ZM312.684 31.2649C310.817 30.0249 310.568 27.9299 312.191 26.4949C312.316 26.3049 312.559 26.2099 312.684 26.1149C314.557 27.3549 314.807 29.4549 313.184 30.8849C313.059 30.9799 312.934 31.1699 312.684 31.2649Z" fill="#E2E2E2"/>
</svg>
